<svg xmlns="http://www.w3.org/2000/svg" style="margin:auto;background:#f1f2f3;display:block;" width="291" height="592" preserveAspectRatio="xMidYMid">
<style type="text/css">
  text {
    text-anchor: middle; font-size: 50px; opacity: 0;
  }
</style>
<g style="transform-origin:145.5px 296px;transform:scale(1)">
<g transform="translate(145.5,296)">
  <g transform="translate(0,0)"><g class="path" style="transform: matrix(1, 0, 0, 1, 0, 0); transform-origin: -110.41px -3.01808px; animation: 1s linear -0.594s infinite normal forwards running bounce-4b43257c-d192-434b-94a5-a648b2f6234a;"><path d="M25.56-11.28L30.27-11.28L30.27-11.28Q29.61-5.64 26.11-2.58L26.11-2.58L26.11-2.58Q22.61 0.49 16.80 0.49L16.80 0.49L16.80 0.49Q10.50 0.49 6.70-4.03L6.70-4.03L6.70-4.03Q2.91-8.54 2.91-16.11L2.91-16.11L2.91-19.53L2.91-19.53Q2.91-24.49 4.68-28.25L4.68-28.25L4.68-28.25Q6.45-32.01 9.69-34.02L9.69-34.02L9.69-34.02Q12.94-36.04 17.21-36.04L17.21-36.04L17.21-36.04Q22.88-36.04 26.29-32.87L26.29-32.87L26.29-32.87Q29.71-29.71 30.27-24.12L30.27-24.12L25.56-24.12L25.56-24.12Q24.95-28.37 22.91-30.27L22.91-30.27L22.91-30.27Q20.87-32.18 17.21-32.18L17.21-32.18L17.21-32.18Q12.72-32.18 10.17-28.86L10.17-28.86L10.17-28.86Q7.62-25.54 7.62-19.41L7.62-19.41L7.62-15.97L7.62-15.97Q7.62-10.18 10.03-6.76L10.03-6.76L10.03-6.76Q12.45-3.34 16.80-3.34L16.80-3.34L16.80-3.34Q20.70-3.34 22.79-5.11L22.79-5.11L22.79-5.11Q24.88-6.88 25.56-11.28L25.56-11.28" fill="#182731" stroke="none" stroke-width="none" transform="translate(-127.00003051757812,14.756921020507809)" style="fill: rgb(24, 39, 49);"></path></g><g class="path" style="transform: matrix(1, 0, 0, 1, 0, 0); transform-origin: -80.89px 1.55192px; animation: 1s linear -0.528s infinite normal forwards running bounce-4b43257c-d192-434b-94a5-a648b2f6234a;"><path d="M57.01 0L52.27 0L52.27 0Q51.88-0.78 51.64-2.78L51.64-2.78L51.64-2.78Q48.49 0.49 44.12 0.49L44.12 0.49L44.12 0.49Q40.21 0.49 37.71-1.72L37.71-1.72L37.71-1.72Q35.21-3.93 35.21-7.32L35.21-7.32L35.21-7.32Q35.21-11.45 38.34-13.73L38.34-13.73L38.34-13.73Q41.48-16.02 47.17-16.02L47.17-16.02L51.56-16.02L51.56-18.09L51.56-18.09Q51.56-20.46 50.15-21.86L50.15-21.86L50.15-21.86Q48.73-23.27 45.97-23.27L45.97-23.27L45.97-23.27Q43.55-23.27 41.92-22.05L41.92-22.05L41.92-22.05Q40.28-20.83 40.28-19.09L40.28-19.09L35.74-19.09L35.74-19.09Q35.74-21.07 37.15-22.91L37.15-22.91L37.15-22.91Q38.55-24.76 40.95-25.83L40.95-25.83L40.95-25.83Q43.36-26.90 46.24-26.90L46.24-26.90L46.24-26.90Q50.81-26.90 53.39-24.62L53.39-24.62L53.39-24.62Q55.98-22.34 56.08-18.33L56.08-18.33L56.08-6.18L56.08-6.18Q56.08-2.54 57.01-0.39L57.01-0.39L57.01 0zM44.78-3.44L44.78-3.44L44.78-3.44Q46.90-3.44 48.80-4.54L48.80-4.54L48.80-4.54Q50.71-5.64 51.56-7.40L51.56-7.40L51.56-12.82L48.02-12.82L48.02-12.82Q39.72-12.82 39.72-7.96L39.72-7.96L39.72-7.96Q39.72-5.83 41.14-4.64L41.14-4.64L41.14-4.64Q42.55-3.44 44.78-3.44" fill="#182731" stroke="none" stroke-width="none" transform="translate(-127.00003051757812,14.756921020507809)" style="fill: rgb(167, 212, 236);"></path></g><g class="path" style="transform: matrix(1, 0, 0, 1, 0, 0); transform-origin: -57.455px 1.30692px; animation: 1s linear -0.462s infinite normal forwards running bounce-4b43257c-d192-434b-94a5-a648b2f6234a;"><path d="M75.93-26.56L75.93-22.36L75.93-22.36Q74.90-22.53 73.71-22.53L73.71-22.53L73.71-22.53Q69.26-22.53 67.68-18.75L67.68-18.75L67.68 0L63.16 0L63.16-26.42L67.55-26.42L67.63-23.36L67.63-23.36Q69.85-26.90 73.93-26.90L73.93-26.90L73.93-26.90Q75.24-26.90 75.93-26.56L75.93-26.56" fill="#182731" stroke="none" stroke-width="none" transform="translate(-127.00003051757812,14.756921020507809)" style="fill: rgb(24, 39, 49);"></path></g><g class="path" style="transform: matrix(1, 0, 0, 1, 0, 0); transform-origin: -40.535px 1.30692px; animation: 1s linear -0.396s infinite normal forwards running bounce-4b43257c-d192-434b-94a5-a648b2f6234a;"><path d="M92.85-26.56L92.85-22.36L92.85-22.36Q91.82-22.53 90.63-22.53L90.63-22.53L90.63-22.53Q86.18-22.53 84.59-18.75L84.59-18.75L84.59 0L80.08 0L80.08-26.42L84.47-26.42L84.55-23.36L84.55-23.36Q86.77-26.90 90.84-26.90L90.84-26.90L90.84-26.90Q92.16-26.90 92.85-26.56L92.85-26.56" fill="#182731" stroke="none" stroke-width="none" transform="translate(-127.00003051757812,14.756921020507809)" style="fill: rgb(167, 212, 236);"></path></g><g class="path" style="transform: matrix(1, 0, 0, 1, 0, 0); transform-origin: -20.405px 1.55192px; animation: 1s linear -0.33s infinite normal forwards running bounce-4b43257c-d192-434b-94a5-a648b2f6234a;"><path d="M107.50 0.49L107.50 0.49L107.50 0.49Q102.12 0.49 98.75-3.04L98.75-3.04L98.75-3.04Q95.39-6.57 95.39-12.48L95.39-12.48L95.39-13.31L95.39-13.31Q95.39-17.24 96.89-20.32L96.89-20.32L96.89-20.32Q98.39-23.41 101.09-25.16L101.09-25.16L101.09-25.16Q103.78-26.90 106.93-26.90L106.93-26.90L106.93-26.90Q112.08-26.90 114.94-23.51L114.94-23.51L114.94-23.51Q117.80-20.12 117.80-13.79L117.80-13.79L117.80-11.91L99.90-11.91L99.90-11.91Q100-8.01 102.19-5.60L102.19-5.60L102.19-5.60Q104.37-3.20 107.74-3.20L107.74-3.20L107.74-3.20Q110.13-3.20 111.79-4.17L111.79-4.17L111.79-4.17Q113.45-5.15 114.70-6.76L114.70-6.76L117.46-4.61L117.46-4.61Q114.14 0.49 107.50 0.49zM106.93-23.19L106.93-23.19L106.93-23.19Q104.20-23.19 102.34-21.20L102.34-21.20L102.34-21.20Q100.49-19.21 100.05-15.63L100.05-15.63L113.28-15.63L113.28-15.97L113.28-15.97Q113.09-19.41 111.43-21.30L111.43-21.30L111.43-21.30Q109.77-23.19 106.93-23.19" fill="#182731" stroke="none" stroke-width="none" transform="translate(-127.00003051757812,14.756921020507809)" style="fill: rgb(24, 39, 49);"></path></g><g class="path" style="transform: matrix(1, 0, 0, 1, 0, 0); transform-origin: 6.10497px 6.50692px; animation: 1s linear -0.264s infinite normal forwards running bounce-4b43257c-d192-434b-94a5-a648b2f6234a;"><path d="M121.95-13.43L121.95-13.43L121.95-13.43Q121.95-19.60 124.80-23.25L124.80-23.25L124.80-23.25Q127.66-26.90 132.37-26.90L132.37-26.90L132.37-26.90Q137.21-26.90 139.92-23.49L139.92-23.49L140.14-26.42L144.26-26.42L144.26-0.63L144.26-0.63Q144.26 4.49 141.22 7.45L141.22 7.45L141.22 7.45Q138.18 10.40 133.06 10.40L133.06 10.40L133.06 10.40Q130.20 10.40 127.47 9.18L127.47 9.18L127.47 9.18Q124.73 7.96 123.29 5.83L123.29 5.83L125.63 3.13L125.63 3.13Q128.54 6.71 132.74 6.71L132.74 6.71L132.74 6.71Q136.04 6.71 137.88 4.86L137.88 4.86L137.88 4.86Q139.72 3.00 139.72-0.37L139.72-0.37L139.72-2.64L139.72-2.64Q137.01 0.49 132.32 0.49L132.32 0.49L132.32 0.49Q127.69 0.49 124.82-3.25L124.82-3.25L124.82-3.25Q121.95-6.98 121.95-13.43zM126.49-12.92L126.49-12.92L126.49-12.92Q126.49-8.45 128.32-5.90L128.32-5.90L128.32-5.90Q130.15-3.34 133.45-3.34L133.45-3.34L133.45-3.34Q137.72-3.34 139.72-7.23L139.72-7.23L139.72-19.29L139.72-19.29Q137.65-23.07 133.50-23.07L133.50-23.07L133.50-23.07Q130.20-23.07 128.34-20.51L128.34-20.51L128.34-20.51Q126.49-17.94 126.49-12.92" fill="#182731" stroke="none" stroke-width="none" transform="translate(-127.00003051757812,14.756921020507809)" style="fill: rgb(167, 212, 236);"></path></g><g class="path" style="transform: matrix(1, 0, 0, 1, 0, 0); transform-origin: 34.22px 1.55192px; animation: 1s linear -0.198s infinite normal forwards running bounce-4b43257c-d192-434b-94a5-a648b2f6234a;"><path d="M172.12 0L167.38 0L167.38 0Q166.99-0.78 166.75-2.78L166.75-2.78L166.75-2.78Q163.60 0.49 159.23 0.49L159.23 0.49L159.23 0.49Q155.32 0.49 152.82-1.72L152.82-1.72L152.82-1.72Q150.32-3.93 150.32-7.32L150.32-7.32L150.32-7.32Q150.32-11.45 153.45-13.73L153.45-13.73L153.45-13.73Q156.59-16.02 162.28-16.02L162.28-16.02L166.67-16.02L166.67-18.09L166.67-18.09Q166.67-20.46 165.26-21.86L165.26-21.86L165.26-21.86Q163.84-23.27 161.08-23.27L161.08-23.27L161.08-23.27Q158.67-23.27 157.03-22.05L157.03-22.05L157.03-22.05Q155.40-20.83 155.40-19.09L155.40-19.09L150.85-19.09L150.85-19.09Q150.85-21.07 152.26-22.91L152.26-22.91L152.26-22.91Q153.66-24.76 156.07-25.83L156.07-25.83L156.07-25.83Q158.47-26.90 161.35-26.90L161.35-26.90L161.35-26.90Q165.92-26.90 168.51-24.62L168.51-24.62L168.51-24.62Q171.09-22.34 171.19-18.33L171.19-18.33L171.19-6.18L171.19-6.18Q171.19-2.54 172.12-0.39L172.12-0.39L172.12 0zM159.89-3.44L159.89-3.44L159.89-3.44Q162.01-3.44 163.92-4.54L163.92-4.54L163.92-4.54Q165.82-5.64 166.67-7.40L166.67-7.40L166.67-12.82L163.13-12.82L163.13-12.82Q154.83-12.82 154.83-7.96L154.83-7.96L154.83-7.96Q154.83-5.83 156.25-4.64L156.25-4.64L156.25-4.64Q157.67-3.44 159.89-3.44" fill="#182731" stroke="none" stroke-width="none" transform="translate(-127.00003051757812,14.756921020507809)" style="fill: rgb(24, 39, 49);"></path></g><g class="path" style="transform: matrix(1, 0, 0, 1, 0, 0); transform-origin: 61.66px 1.30692px; animation: 1s linear -0.132s infinite normal forwards running bounce-4b43257c-d192-434b-94a5-a648b2f6234a;"><path d="M178.27-26.42L182.54-26.42L182.69-23.10L182.69-23.10Q185.72-26.90 190.60-26.90L190.60-26.90L190.60-26.90Q198.97-26.90 199.05-17.46L199.05-17.46L199.05 0L194.53 0L194.53-17.48L194.53-17.48Q194.51-20.34 193.23-21.70L193.23-21.70L193.23-21.70Q191.94-23.07 189.23-23.07L189.23-23.07L189.23-23.07Q187.04-23.07 185.38-21.90L185.38-21.90L185.38-21.90Q183.72-20.73 182.79-18.82L182.79-18.82L182.79 0L178.27 0L178.27-26.42" fill="#182731" stroke="none" stroke-width="none" transform="translate(-127.00003051757812,14.756921020507809)" style="fill: rgb(167, 212, 236);"></path></g><g class="path" style="transform: matrix(1, 0, 0, 1, 0, 0); transform-origin: 88.905px -3.74808px; animation: 1s linear -0.066s infinite normal forwards running bounce-4b43257c-d192-434b-94a5-a648b2f6234a;"><path d="M204.76-13.09L204.76-13.43L204.76-13.43Q204.76-19.51 207.64-23.21L207.64-23.21L207.64-23.21Q210.52-26.90 215.19-26.90L215.19-26.90L215.19-26.90Q219.82-26.90 222.53-23.73L222.53-23.73L222.53-37.50L227.05-37.50L227.05 0L222.90 0L222.68-2.83L222.68-2.83Q219.97 0.49 215.14 0.49L215.14 0.49L215.14 0.49Q210.55 0.49 207.65-3.27L207.65-3.27L207.65-3.27Q204.76-7.03 204.76-13.09L204.76-13.09zM209.28-12.92L209.28-12.92L209.28-12.92Q209.28-8.42 211.13-5.88L211.13-5.88L211.13-5.88Q212.99-3.34 216.26-3.34L216.26-3.34L216.26-3.34Q220.56-3.34 222.53-7.20L222.53-7.20L222.53-19.34L222.53-19.34Q220.51-23.07 216.31-23.07L216.31-23.07L216.31-23.07Q212.99-23.07 211.13-20.51L211.13-20.51L211.13-20.51Q209.28-17.94 209.28-12.92" fill="#182731" stroke="none" stroke-width="none" transform="translate(-127.00003051757812,14.756921020507809)" style="fill: rgb(24, 39, 49);"></path></g><g class="path" style="transform: matrix(1, 0, 0, 1, 0, 0); transform-origin: 117.885px 1.55192px; animation: 1s linear 0s infinite normal forwards running bounce-4b43257c-d192-434b-94a5-a648b2f6234a;"><path d="M232.86-13.13L232.86-13.45L232.86-13.45Q232.86-17.33 234.39-20.43L234.39-20.43L234.39-20.43Q235.91-23.54 238.64-25.22L238.64-25.22L238.64-25.22Q241.36-26.90 244.85-26.90L244.85-26.90L244.85-26.90Q250.24-26.90 253.58-23.17L253.58-23.17L253.58-23.17Q256.91-19.43 256.91-13.23L256.91-13.23L256.91-12.92L256.91-12.92Q256.91-9.06 255.43-5.99L255.43-5.99L255.43-5.99Q253.96-2.93 251.21-1.22L251.21-1.22L251.21-1.22Q248.46 0.49 244.90 0.49L244.90 0.49L244.90 0.49Q239.53 0.49 236.19-3.25L236.19-3.25L236.19-3.25Q232.86-6.98 232.86-13.13L232.86-13.13zM237.40-12.92L237.40-12.92L237.40-12.92Q237.40-8.52 239.44-5.86L239.44-5.86L239.44-5.86Q241.48-3.20 244.90-3.20L244.90-3.20L244.90-3.20Q248.34-3.20 250.37-5.90L250.37-5.90L250.37-5.90Q252.39-8.59 252.39-13.45L252.39-13.45L252.39-13.45Q252.39-17.80 250.33-20.50L250.33-20.50L250.33-20.50Q248.27-23.19 244.85-23.19L244.85-23.19L244.85-23.19Q241.50-23.19 239.45-20.53L239.45-20.53L239.45-20.53Q237.40-17.87 237.40-12.92" fill="#182731" stroke="none" stroke-width="none" transform="translate(-127.00003051757812,14.756921020507809)" style="fill: rgb(167, 212, 236);"></path></g></g>
</g>
</g>
</svg>
